<svg width="122" height="124" viewBox="0 0 122 124" fill="none" xmlns="http://www.w3.org/2000/svg" class="inner-svg" data-v-7a5dd4ef="" data-v-fc1fb774=""><mask id="mask0_1_4" style="mask-type:alpha;" maskUnits="userSpaceOnUse" x="0" y="0" width="122" height="124" data-v-fc1fb774=""><path d="M121.354 120.354C121.549 120.158 121.549 119.842 121.354 119.646L118.172 116.464C117.976 116.269 117.66 116.269 117.464 116.464C117.269 116.66 117.269 116.976 117.464 117.172L120.293 120L117.464 122.828C117.269 123.024 117.269 123.34 117.464 123.536C117.66 123.731 117.976 123.731 118.172 123.536L121.354 120.354ZM75.078 110.866L74.8866 111.327L75.078 110.866ZM36.1472 84.8528L36.5007 84.4993L36.1472 84.8528ZM10.1344 45.922L9.6725 46.1133L10.1344 45.922ZM121 119.5C105.307 119.5 89.7677 116.409 75.2693 110.404L74.8866 111.327C89.5064 117.383 105.176 120.5 121 120.5V119.5ZM75.2693 110.404C60.7709 104.398 47.5973 95.5959 36.5007 84.4993L35.7936 85.2064C46.9831 96.3958 60.2669 105.272 74.8866 111.327L75.2693 110.404ZM36.5007 84.4993C25.4041 73.4027 16.6018 60.2291 10.5964 45.7307L9.6725 46.1133C15.7282 60.7331 24.6042 74.0169 35.7936 85.2064L36.5007 84.4993ZM10.5964 45.7307C4.59095 31.2323 1.49999 15.693 1.5 1.62921e-07L0.5 -1.62921e-07C0.499995 15.8243 3.61682 31.4936 9.6725 46.1133L10.5964 45.7307Z" fill="white" data-v-fc1fb774=""></path></mask><g mask="url(#mask0_1_4)" data-v-fc1fb774=""><path class="path" d="M1 -1.5C0.333333 15.1667 5 54.8714 37 85.5C68.3433 115.5 101 120.5 126 120.5" stroke="#fff" stroke-width="13" data-v-fc1fb774="" style="stroke-dashoffset: 0; stroke-dasharray: 195.065px, 0.1px;"></path></g></svg>